<svg width="162" height="161" viewBox="0 0 162 161" fill="none" xmlns="http://www.w3.org/2000/svg">
<path d="M67.0815 56.295C66.3192 44.9869 56.7899 35.9658 45.2277 35.9658C33.6655 35.9658 24.2633 44.9869 23.501 56.295C14.8611 56.6761 8 63.7913 8 72.5583C8 81.5793 15.2423 88.8216 24.2633 88.8216H66.1921C75.2132 88.8216 82.4554 81.5793 82.4554 72.5583C82.5825 63.7913 75.7214 56.6761 67.0815 56.295Z" fill="url(#paint0_radial_576_1577)"/>
<path d="M45.2278 58.328C39.129 53.3728 36.7149 45.7493 39.8913 41.4294C43.0678 37.1095 50.5641 37.4906 56.7899 42.5729C62.8887 47.5281 65.3028 55.1516 62.1263 59.4715C58.9499 63.7914 51.4535 63.2832 45.2278 58.328Z" fill="url(#paint1_radial_576_1577)"/>
<path opacity="0.4" d="M67.2086 73.0651C62.3804 69.1263 60.4746 63.1546 63.0157 59.7241C65.5569 56.2935 71.4015 56.6747 76.2296 60.6135C81.0578 64.5522 82.9637 70.5239 80.4225 73.9545C77.8814 77.2579 72.0368 76.8768 67.2086 73.0651Z" fill="url(#paint2_radial_576_1577)"/>
<path opacity="0.2" d="M19.6893 73.5745C16.1317 67.984 12.0658 65.3158 10.4141 67.6028C8.88942 69.8898 10.5412 76.1156 14.0988 81.7061C17.6564 87.2966 21.7222 89.9648 23.3739 87.6778C24.8986 85.3908 23.2469 79.165 19.6893 73.5745Z" fill="url(#paint3_radial_576_1577)"/>
<path d="M146.746 56.295C145.984 44.9869 136.455 35.9658 124.893 35.9658C113.33 35.9658 103.928 44.9869 103.039 56.295C94.3988 56.6761 87.5377 63.7913 87.5377 72.5583C87.5377 81.5793 94.78 88.8216 103.801 88.8216H145.73C154.751 88.8216 161.993 81.5793 161.993 72.5583C162.247 63.7913 155.386 56.6761 146.746 56.295Z" fill="url(#paint4_radial_576_1577)"/>
<path d="M125.02 58.328C118.921 53.3728 116.507 45.7493 119.683 41.4294C122.86 37.1095 130.356 37.4906 136.582 42.5729C142.68 47.5281 145.095 55.1516 141.918 59.4715C138.615 63.7914 131.118 63.2832 125.02 58.328Z" fill="url(#paint5_radial_576_1577)"/>
<path opacity="0.4" d="M146.873 73.0651C142.045 69.1263 140.139 63.1546 142.681 59.7241C145.222 56.2935 151.066 56.6747 155.894 60.6135C160.723 64.5522 162.628 70.5239 160.087 73.9545C157.546 77.2579 151.702 76.8768 146.873 73.0651Z" fill="url(#paint6_radial_576_1577)"/>
<path opacity="0.2" d="M99.3541 73.5745C95.7965 67.984 91.7307 65.3158 90.079 67.6028C88.5543 69.8898 90.206 76.1156 93.7636 81.7061C97.3212 87.2966 101.387 89.9648 103.039 87.6778C104.563 85.3908 102.912 79.165 99.3541 73.5745Z" fill="url(#paint7_radial_576_1577)"/>
<path d="M111.424 80.8169C110.535 67.0948 99.0999 56.2949 85.1236 56.2949C71.1474 56.2949 59.7122 67.0948 58.8228 80.8169C48.4042 81.3252 40.1454 89.965 40.1454 100.511C40.1454 111.311 48.9124 120.205 59.8393 120.205H110.535C121.335 120.205 130.229 111.438 130.229 100.511C130.102 89.838 121.843 81.3252 111.424 80.8169Z" fill="url(#paint8_radial_576_1577)"/>
<path d="M85.1236 83.2311C77.7543 77.2595 74.832 68.1114 78.6437 62.775C82.4554 57.4386 91.6035 58.0738 98.9728 64.0455C106.342 70.0172 109.264 79.1653 105.453 84.5017C101.641 89.8381 92.4929 89.2028 85.1236 83.2311Z" fill="url(#paint9_radial_576_1577)"/>
<path opacity="0.4" d="M111.552 101.019C105.707 96.3178 103.42 89.0755 106.469 85.0097C109.519 80.8168 116.634 81.325 122.478 86.0261C128.323 90.7273 130.61 97.9695 127.561 102.035C124.511 106.101 117.396 105.72 111.552 101.019Z" fill="url(#paint10_radial_576_1577)"/>
<path opacity="0.2" d="M54.1217 101.654C49.8018 94.9198 44.8466 91.7433 42.9407 94.4115C41.0349 97.0797 43.0678 104.703 47.3877 111.437C51.7076 118.171 56.6629 121.348 58.5687 118.679C60.4746 116.011 58.4417 108.388 54.1217 101.654Z" fill="url(#paint11_radial_576_1577)"/>
<defs>
<radialGradient id="paint0_radial_576_1577" cx="0" cy="0" r="1" gradientUnits="userSpaceOnUse" gradientTransform="translate(54.6634 47.1097) rotate(180) scale(56.8291 41.5136)">
<stop stop-color="white"/>
<stop offset="0.198" stop-color="#B4ECFF"/>
<stop offset="1" stop-color="#69ACF1"/>
</radialGradient>
<radialGradient id="paint1_radial_576_1577" cx="0" cy="0" r="1" gradientUnits="userSpaceOnUse" gradientTransform="translate(51.0244 50.421) rotate(126.034) scale(9.7808 14.2683)">
<stop stop-color="white"/>
<stop offset="1" stop-color="white" stop-opacity="0"/>
</radialGradient>
<radialGradient id="paint2_radial_576_1577" cx="0" cy="0" r="1" gradientUnits="userSpaceOnUse" gradientTransform="translate(71.6971 66.8075) rotate(126.034) scale(7.68714 11.2141)">
<stop stop-color="white"/>
<stop offset="1" stop-color="white" stop-opacity="0"/>
</radialGradient>
<radialGradient id="paint3_radial_576_1577" cx="0" cy="0" r="1" gradientUnits="userSpaceOnUse" gradientTransform="translate(16.8606 77.6412) rotate(-25.7092) scale(3.94013 11.4701)">
<stop stop-color="white"/>
<stop offset="1" stop-color="white" stop-opacity="0"/>
</radialGradient>
<radialGradient id="paint4_radial_576_1577" cx="0" cy="0" r="1" gradientUnits="userSpaceOnUse" gradientTransform="translate(134.349 47.1097) rotate(180) scale(56.8289 41.5135)">
<stop stop-color="white"/>
<stop offset="0.198" stop-color="#B4ECFF"/>
<stop offset="1" stop-color="#69ACF1"/>
</radialGradient>
<radialGradient id="paint5_radial_576_1577" cx="0" cy="0" r="1" gradientUnits="userSpaceOnUse" gradientTransform="translate(130.71 50.4211) rotate(126.034) scale(9.78062 14.2681)">
<stop stop-color="white"/>
<stop offset="1" stop-color="white" stop-opacity="0"/>
</radialGradient>
<radialGradient id="paint6_radial_576_1577" cx="0" cy="0" r="1" gradientUnits="userSpaceOnUse" gradientTransform="translate(151.383 66.8073) rotate(126.034) scale(7.68714 11.2141)">
<stop stop-color="white"/>
<stop offset="1" stop-color="white" stop-opacity="0"/>
</radialGradient>
<radialGradient id="paint7_radial_576_1577" cx="0" cy="0" r="1" gradientUnits="userSpaceOnUse" gradientTransform="translate(96.5451 77.6398) rotate(-25.7092) scale(3.94013 11.4701)">
<stop stop-color="white"/>
<stop offset="1" stop-color="white" stop-opacity="0"/>
</radialGradient>
<radialGradient id="paint8_radial_576_1577" cx="0" cy="0" r="1" gradientUnits="userSpaceOnUse" gradientTransform="translate(96.4578 69.6716) rotate(180) scale(68.6339 50.1371)">
<stop stop-color="white"/>
<stop offset="0.198" stop-color="#D5F3FF"/>
<stop offset="1" stop-color="#85BCF1"/>
</radialGradient>
<radialGradient id="paint9_radial_576_1577" cx="0" cy="0" r="1" gradientUnits="userSpaceOnUse" gradientTransform="translate(92.062 73.6723) rotate(126.034) scale(11.8123 17.2319)">
<stop stop-color="white"/>
<stop offset="1" stop-color="white" stop-opacity="0"/>
</radialGradient>
<radialGradient id="paint10_radial_576_1577" cx="0" cy="0" r="1" gradientUnits="userSpaceOnUse" gradientTransform="translate(117.031 93.4628) rotate(126.034) scale(9.28326 13.5425)">
<stop stop-color="white"/>
<stop offset="1" stop-color="white" stop-opacity="0"/>
</radialGradient>
<radialGradient id="paint11_radial_576_1577" cx="0" cy="0" r="1" gradientUnits="userSpaceOnUse" gradientTransform="translate(50.8031 106.546) rotate(-25.7092) scale(4.75863 13.8528)">
<stop stop-color="white"/>
<stop offset="1" stop-color="white" stop-opacity="0"/>
</radialGradient>
</defs>
</svg>
