<svg width="162" height="161" viewBox="0 0 162 161" fill="none" xmlns="http://www.w3.org/2000/svg">
<g clip-path="url(#clip0_576_1469)">
<path d="M152.168 92.0405L142.179 92.8208L140.306 102.497L130.786 99.6879L125.792 108.272L117.676 102.341L110.029 108.74L104.41 100.468L95.0463 103.746L92.7052 94.0694L82.7168 93.9133L83.8093 83.9249L74.4451 80.4913L78.9711 71.4393L71.3237 65.0405L78.5029 58.1734L73.6648 49.4335L82.8729 45.3757L81.3122 35.5434L91.1445 34.9191L93.0174 25.0867L102.538 27.896L107.688 19.4682L115.803 25.2428L123.451 19L128.913 27.2717L138.434 23.9942L140.775 33.6705L150.763 33.8266L149.671 43.659L158.879 47.2486L154.509 56.1445L162 62.6994L154.821 69.5665L159.659 78.3064L150.607 82.2081L152.168 92.0405Z" fill="url(#paint0_linear_576_1469)"/>
<path d="M116.74 97.3471C135.272 97.3471 150.295 82.3241 150.295 63.7922C150.295 45.2604 135.272 30.2373 116.74 30.2373C98.208 30.2373 83.1849 45.2604 83.1849 63.7922C83.1849 82.3241 98.208 97.3471 116.74 97.3471Z" fill="url(#paint1_radial_576_1469)"/>
<path d="M121.89 60.358C113.306 53.491 110.029 42.8782 114.399 36.7915C118.769 30.7048 129.382 31.3291 137.965 38.3522C146.549 45.2193 149.827 55.832 145.457 61.9187C140.931 68.0054 130.318 67.3811 121.89 60.358Z" fill="url(#paint2_radial_576_1469)"/>
<path opacity="0.4" d="M87.0867 71.2828C88.1792 67.5372 93.9538 69.0979 99.8844 74.7164C105.815 80.3349 109.717 87.8262 108.624 91.5719C107.532 95.3175 101.757 93.7568 95.8266 88.1383C89.896 82.5198 85.8382 75.0285 87.0867 71.2828Z" fill="url(#paint3_radial_576_1469)"/>
<path d="M113.931 77.3697C112.37 55.52 94.1098 38.1963 71.948 38.1963C49.6301 38.1963 31.3699 55.52 29.9653 77.3697C13.2659 78.3061 0 92.0402 0 108.74C0 126.063 14.0462 140.11 31.3699 140.11H112.37C129.694 140.11 143.74 126.063 143.74 108.74C143.74 92.0402 130.474 78.3061 113.931 77.3697Z" fill="url(#paint4_radial_576_1469)"/>
<path d="M113.931 77.3697C112.37 55.52 94.1098 38.1963 71.948 38.1963C49.6301 38.1963 31.3699 55.52 29.9653 77.3697C13.2659 78.3061 0 92.0402 0 108.74C0 126.063 14.0462 140.11 31.3699 140.11H112.37C129.694 140.11 143.74 126.063 143.74 108.74C143.74 92.0402 130.474 78.3061 113.931 77.3697Z" fill="url(#paint5_radial_576_1469)"/>
<path d="M71.948 81.2715C60.0867 71.7513 55.5607 57.0808 61.6474 48.653C67.7341 40.2253 82.4046 41.1617 94.1098 50.6819C105.971 60.2022 110.497 74.8727 104.41 83.3004C98.3237 91.8843 83.6532 90.9478 71.948 81.2715Z" fill="url(#paint6_radial_576_1469)"/>
<path opacity="0.4" d="M114.087 109.676C104.723 102.185 101.133 90.6357 105.971 84.0808C110.809 77.5259 122.202 78.1502 131.567 85.7976C140.931 93.2889 144.52 104.838 139.682 111.393C134.844 117.948 123.451 117.168 114.087 109.676Z" fill="url(#paint7_radial_576_1469)"/>
<path opacity="0.2" d="M22.474 110.768C15.6069 99.9997 7.6474 94.8494 4.68208 99.2193C1.71676 103.589 4.83815 115.763 11.7052 126.531C18.5723 137.3 26.5318 142.451 29.4971 138.081C32.4624 133.555 29.341 121.381 22.474 110.768Z" fill="url(#paint8_radial_576_1469)"/>
</g>
<defs>
<linearGradient id="paint0_linear_576_1469" x1="158.045" y1="17.655" x2="78.3718" y2="106.688" gradientUnits="userSpaceOnUse">
<stop stop-color="#FFBA24"/>
<stop offset="1" stop-color="#FF5500"/>
</linearGradient>
<radialGradient id="paint1_radial_576_1469" cx="0" cy="0" r="1" gradientUnits="userSpaceOnUse" gradientTransform="translate(124.391 42.7911) rotate(180) scale(63.7397 63.7397)">
<stop stop-color="#FFF4C3"/>
<stop offset="0.1559" stop-color="#FFE036"/>
<stop offset="1" stop-color="#FA761C"/>
</radialGradient>
<radialGradient id="paint2_radial_576_1469" cx="0" cy="0" r="1" gradientUnits="userSpaceOnUse" gradientTransform="translate(129.857 49.3497) rotate(126.034) scale(13.6492 19.9116)">
<stop stop-color="white"/>
<stop offset="1" stop-color="white" stop-opacity="0"/>
</radialGradient>
<radialGradient id="paint3_radial_576_1469" cx="0" cy="0" r="1" gradientUnits="userSpaceOnUse" gradientTransform="translate(97.8554 81.4279) rotate(-136.79) scale(14.8424 6.30417)">
<stop stop-color="white"/>
<stop offset="1" stop-color="white" stop-opacity="0"/>
</radialGradient>
<radialGradient id="paint4_radial_576_1469" cx="0" cy="0" r="1" gradientUnits="userSpaceOnUse" gradientTransform="translate(90.006 59.6899) rotate(180) scale(109.651 80.0998)">
<stop stop-color="white"/>
<stop offset="0.198" stop-color="#D5F3FF"/>
<stop offset="1" stop-color="#85BCF1"/>
</radialGradient>
<radialGradient id="paint5_radial_576_1469" cx="0" cy="0" r="1" gradientUnits="userSpaceOnUse" gradientTransform="translate(105.543 68.8855) scale(93.2152 93.2152)">
<stop stop-color="#FFE036"/>
<stop offset="0.00517282" stop-color="#FFDF36" stop-opacity="0.9933"/>
<stop offset="0.1623" stop-color="#FDB92C" stop-opacity="0.789"/>
<stop offset="0.319" stop-color="#FC9C25" stop-opacity="0.5851"/>
<stop offset="0.4735" stop-color="#FB8720" stop-opacity="0.3841"/>
<stop offset="0.6247" stop-color="#FA7A1D" stop-opacity="0.1875"/>
<stop offset="0.7688" stop-color="#FA761C" stop-opacity="0"/>
</radialGradient>
<radialGradient id="paint6_radial_576_1469" cx="0" cy="0" r="1" gradientUnits="userSpaceOnUse" gradientTransform="translate(82.9837 66.0807) rotate(126.034) scale(18.8717 27.5303)">
<stop stop-color="white"/>
<stop offset="1" stop-color="white" stop-opacity="0"/>
</radialGradient>
<radialGradient id="paint7_radial_576_1469" cx="0" cy="0" r="1" gradientUnits="userSpaceOnUse" gradientTransform="translate(122.87 97.6985) rotate(126.034) scale(14.831 21.6356)">
<stop stop-color="white"/>
<stop offset="1" stop-color="white" stop-opacity="0"/>
</radialGradient>
<radialGradient id="paint8_radial_576_1469" cx="0" cy="0" r="1" gradientUnits="userSpaceOnUse" gradientTransform="translate(17.0707 118.604) rotate(-25.7092) scale(7.60223 22.1307)">
<stop stop-color="white"/>
<stop offset="1" stop-color="white" stop-opacity="0"/>
</radialGradient>
<clipPath id="clip0_576_1469">
<rect width="162" height="161" fill="white"/>
</clipPath>
</defs>
</svg>
