<svg width="140" height="161" viewBox="0 0 140 161" fill="none" xmlns="http://www.w3.org/2000/svg">
<path d="M136.174 110.633L121.549 102.055L126.133 99.4153C129.844 97.2159 130.935 92.597 128.971 89.0779C126.788 85.5587 122.204 84.2391 118.712 86.2186L106.706 93.2569L95.5741 86.8784C96.0106 84.8989 96.2289 82.6995 96.2289 80.72C96.2289 78.5205 96.0106 76.541 95.5741 74.5615L106.706 68.183L118.712 75.2213C119.803 75.8812 121.113 76.3211 122.422 76.3211C125.042 76.3211 127.661 75.0014 128.971 72.582C131.154 69.0628 129.844 64.2241 126.133 62.2446L121.549 59.6052L136.174 51.0273C139.666 48.8279 140.976 44.209 139.012 40.6899C136.829 36.9508 132.245 35.8511 128.753 37.8306L114.128 46.4085V41.1298C114.128 36.9508 110.854 33.6517 106.706 33.6517C102.559 33.6517 99.2848 36.9508 99.2848 41.1298V55.2063L88.1526 61.5847C85.0967 58.7254 81.3859 56.526 77.4569 55.2063V42.2295L89.4623 35.1912C93.173 32.9918 94.2644 28.373 92.2999 24.8539C90.1171 21.1148 85.5332 20.015 82.0408 21.9945L77.4569 24.6339V7.47819C77.4569 3.29923 74.1827 0 70.0354 0C65.8881 0 62.6139 3.29923 62.6139 7.47819V24.6339L58.0301 21.9945C54.5376 19.7951 49.7355 21.1148 47.7709 24.8539C45.5881 28.373 46.8978 33.2117 50.6086 35.1912L62.6139 42.2295V55.2063C58.4666 56.526 54.9742 58.5055 51.9182 61.5847L40.786 54.9863V40.9098C40.786 36.7309 37.5118 33.4317 33.3645 33.4317C29.2172 33.4317 25.943 36.7309 25.943 40.9098V46.1885L11.3183 37.6107C7.60758 35.4112 3.02371 36.7309 1.0592 40.47C-1.12359 43.9891 0.186087 48.8279 3.89683 50.8074L18.5215 59.3852L13.9377 62.0246C10.4452 64.2241 9.13552 68.8429 11.1 72.3621C12.4097 74.7815 15.0291 76.1011 17.6484 76.1011C18.9581 76.1011 20.2678 75.8811 21.3592 75.0014L33.3645 67.9632L44.4967 74.3416C44.0602 76.3211 43.6236 78.5205 43.6236 80.5C43.6236 82.6994 43.8419 84.679 44.4967 86.6585L33.3645 93.0369L21.3592 85.9986C17.6484 83.7992 13.0645 85.1189 11.1 88.858C8.91724 92.3771 10.2269 97.2158 13.9377 99.1954L18.5215 101.835L3.89683 110.413C0.186087 112.612 -0.905315 117.231 1.0592 120.75C2.36887 123.169 4.98822 124.489 7.60757 124.489C8.91725 124.489 10.2269 124.269 11.3183 123.389L25.943 114.811V120.09C25.943 124.269 29.2172 127.568 33.3645 127.568C37.5118 127.568 41.0043 124.269 41.0043 120.09V106.014L52.1365 99.4153C55.1924 102.275 58.9032 104.474 62.8322 105.794V118.77L50.8268 125.809C47.1161 128.008 46.0247 132.627 47.9892 136.146C50.172 139.885 54.7559 140.985 58.2483 139.005L62.8322 136.366V153.522C62.8322 157.701 66.1064 161 70.2537 161C74.401 161 77.6752 157.701 77.6752 153.522V136.806L82.259 139.445C83.3504 140.105 84.6601 140.545 85.9698 140.545C88.5891 140.545 91.2085 139.225 92.5182 136.806C94.701 133.287 93.3913 128.448 89.6805 126.469L77.6752 119.43V106.454C81.8225 105.134 85.315 103.154 88.3709 100.075L99.5031 106.454V120.53C99.5031 124.709 102.777 128.008 106.925 128.008C111.072 128.008 114.346 124.709 114.346 120.53V115.251L128.971 123.829C130.062 124.489 131.372 124.929 132.682 124.929C135.301 124.929 137.92 123.609 139.23 121.19C140.976 117.451 139.666 112.612 136.174 110.633ZM69.3806 92.1571C63.0505 92.1571 57.8118 86.8784 57.8118 80.5C57.8118 74.1216 63.0505 68.8429 69.3806 68.8429C75.7107 68.8429 80.9494 74.1216 80.9494 80.5C80.9494 86.8784 75.7107 92.1571 69.3806 92.1571Z" fill="url(#paint0_radial_671_1511)"/>
<defs>
<radialGradient id="paint0_radial_671_1511" cx="0" cy="0" r="1" gradientUnits="userSpaceOnUse" gradientTransform="translate(115.384 48.34) scale(136.762 137.806)">
<stop stop-color="#28CBE9"/>
<stop offset="1" stop-color="#0A4FBB"/>
</radialGradient>
</defs>
</svg>
