<svg width="162" height="161" viewBox="0 0 162 161" fill="none" xmlns="http://www.w3.org/2000/svg">
<path d="M124.259 49.974C122.666 27.6778 104.192 10 81.4184 10C58.6443 10 40.0111 27.6778 38.5777 49.974C21.537 50.9296 8 64.9444 8 81.9851C8 99.6628 22.3333 113.996 40.0111 113.996H122.666C140.344 113.996 154.677 99.6628 154.677 81.9851C154.677 64.9444 141.14 50.9296 124.259 49.974Z" fill="url(#paint0_radial_576_1901)"/>
<path d="M81.4183 53.9558C69.3147 44.241 64.6962 29.2707 70.9073 20.6707C77.1184 12.0707 92.0887 13.0262 104.033 22.741C116.137 32.4558 120.755 47.4262 114.544 56.0262C108.333 64.7854 93.3628 63.8299 81.4183 53.9558Z" fill="url(#paint1_radial_576_1901)"/>
<path opacity="0.4" d="M124.418 82.9417C114.863 75.2973 111.2 63.5121 116.137 56.8232C121.074 50.1344 132.7 50.7714 142.255 58.5751C151.811 66.2195 155.474 78.0047 150.537 84.6935C145.6 91.3824 133.974 90.5862 124.418 82.9417Z" fill="url(#paint2_radial_576_1901)"/>
<path opacity="0.2" d="M30.9333 84.0558C23.9259 73.0669 15.8037 67.8114 12.7778 72.2706C9.75186 76.7299 12.937 89.1521 19.9444 99.9817C26.9518 110.971 35.074 116.226 38.1 111.767C41.1259 107.308 37.9407 94.8854 30.9333 84.0558Z" fill="url(#paint3_radial_576_1901)"/>
<path d="M45.5851 133.743C43.8333 136.928 39.8518 137.884 36.6666 136.132C33.4814 134.38 32.5259 130.399 34.2777 127.214C36.0296 124.028 47.337 117.817 47.337 117.817C47.337 117.817 47.337 130.717 45.5851 133.743Z" fill="url(#paint4_radial_576_1901)"/>
<path d="M34.4369 132.628C33.4813 129.921 33.9591 127.213 35.8702 126.417C37.6221 125.621 39.8517 127.214 40.9665 129.762C41.9221 132.469 41.285 135.176 39.5332 135.973C37.6221 136.928 35.3924 135.336 34.4369 132.628Z" fill="url(#paint5_radial_576_1901)"/>
<path d="M72.9777 133.743C71.2258 136.928 67.2444 137.884 64.0592 136.132C60.874 134.38 59.9185 130.399 61.6703 127.214C63.4221 124.028 74.7295 117.817 74.7295 117.817C74.7295 117.817 74.7295 130.717 72.9777 133.743Z" fill="url(#paint6_radial_576_1901)"/>
<path d="M61.8295 132.628C60.8739 129.921 61.3517 127.213 63.2628 126.417C65.0146 125.621 67.2443 127.214 68.3591 129.762C69.3146 132.469 68.6776 135.176 66.9257 135.973C65.0146 136.928 62.785 135.336 61.8295 132.628Z" fill="url(#paint7_radial_576_1901)"/>
<path d="M100.37 133.743C98.6184 136.928 94.6369 137.884 91.4517 136.132C88.2665 134.38 87.311 130.399 89.0628 127.214C90.8147 124.028 102.122 117.817 102.122 117.817C102.122 117.817 102.122 130.717 100.37 133.743Z" fill="url(#paint8_radial_576_1901)"/>
<path d="M89.222 132.628C88.2664 129.921 88.7442 127.213 90.6553 126.417C92.4072 125.621 94.6368 127.214 95.7516 129.762C96.7071 132.469 96.0701 135.176 94.3183 135.973C92.4072 136.928 90.1775 135.336 89.222 132.628Z" fill="url(#paint9_radial_576_1901)"/>
<path d="M127.763 133.743C126.011 136.928 122.029 137.884 118.844 136.132C115.659 134.38 114.703 130.399 116.455 127.214C118.207 124.028 129.515 117.817 129.515 117.817C129.515 117.817 129.515 130.717 127.763 133.743Z" fill="url(#paint10_radial_576_1901)"/>
<path d="M116.614 132.628C115.659 129.921 116.137 127.213 118.048 126.417C119.8 125.621 122.029 127.214 123.144 129.762C124.1 132.469 123.463 135.176 121.711 135.973C119.8 136.928 117.57 135.336 116.614 132.628Z" fill="url(#paint11_radial_576_1901)"/>
<defs>
<radialGradient id="paint0_radial_576_1901" cx="0" cy="0" r="1" gradientUnits="userSpaceOnUse" gradientTransform="translate(99.8435 31.9247) rotate(180) scale(111.889 81.7347)">
<stop stop-color="white"/>
<stop offset="0.198" stop-color="#D5F3FF"/>
<stop offset="1" stop-color="#85BCF1"/>
</radialGradient>
<radialGradient id="paint1_radial_576_1901" cx="0" cy="0" r="1" gradientUnits="userSpaceOnUse" gradientTransform="translate(92.6768 38.4494) rotate(126.034) scale(19.2567 28.0919)">
<stop stop-color="white"/>
<stop offset="1" stop-color="white" stop-opacity="0"/>
</radialGradient>
<radialGradient id="paint2_radial_576_1901" cx="0" cy="0" r="1" gradientUnits="userSpaceOnUse" gradientTransform="translate(133.38 70.7142) rotate(126.034) scale(15.1343 22.0781)">
<stop stop-color="white"/>
<stop offset="1" stop-color="white" stop-opacity="0"/>
</radialGradient>
<radialGradient id="paint3_radial_576_1901" cx="0" cy="0" r="1" gradientUnits="userSpaceOnUse" gradientTransform="translate(25.4313 92.0397) rotate(-25.7092) scale(7.75728 22.5821)">
<stop stop-color="white"/>
<stop offset="1" stop-color="white" stop-opacity="0"/>
</radialGradient>
<radialGradient id="paint4_radial_576_1901" cx="0" cy="0" r="1" gradientUnits="userSpaceOnUse" gradientTransform="translate(36.7929 132.296) rotate(30.0007) scale(15.7518)">
<stop stop-color="#D0F2FF"/>
<stop offset="0.198" stop-color="#D5F3FF"/>
<stop offset="1" stop-color="#85BCF1"/>
</radialGradient>
<radialGradient id="paint5_radial_576_1901" cx="0" cy="0" r="1" gradientUnits="userSpaceOnUse" gradientTransform="translate(37.6253 131.269) rotate(156.037) scale(3.51967 5.13435)">
<stop stop-color="white"/>
<stop offset="1" stop-color="white" stop-opacity="0"/>
</radialGradient>
<radialGradient id="paint6_radial_576_1901" cx="0" cy="0" r="1" gradientUnits="userSpaceOnUse" gradientTransform="translate(64.1738 132.296) rotate(30.0007) scale(15.7524)">
<stop stop-color="#D0F2FF"/>
<stop offset="0.198" stop-color="#D5F3FF"/>
<stop offset="1" stop-color="#85BCF1"/>
</radialGradient>
<radialGradient id="paint7_radial_576_1901" cx="0" cy="0" r="1" gradientUnits="userSpaceOnUse" gradientTransform="translate(65.0052 131.269) rotate(156.037) scale(3.51967 5.13435)">
<stop stop-color="white"/>
<stop offset="1" stop-color="white" stop-opacity="0"/>
</radialGradient>
<radialGradient id="paint8_radial_576_1901" cx="0" cy="0" r="1" gradientUnits="userSpaceOnUse" gradientTransform="translate(91.5552 132.296) rotate(30.0007) scale(15.7518 15.7518)">
<stop stop-color="#D0F2FF"/>
<stop offset="0.198" stop-color="#D5F3FF"/>
<stop offset="1" stop-color="#85BCF1"/>
</radialGradient>
<radialGradient id="paint9_radial_576_1901" cx="0" cy="0" r="1" gradientUnits="userSpaceOnUse" gradientTransform="translate(92.3873 131.269) rotate(156.037) scale(3.51967 5.13435)">
<stop stop-color="white"/>
<stop offset="1" stop-color="white" stop-opacity="0"/>
</radialGradient>
<radialGradient id="paint10_radial_576_1901" cx="0" cy="0" r="1" gradientUnits="userSpaceOnUse" gradientTransform="translate(118.936 132.296) rotate(30.0007) scale(15.7518 15.7518)">
<stop stop-color="#D0F2FF"/>
<stop offset="0.198" stop-color="#D5F3FF"/>
<stop offset="1" stop-color="#85BCF1"/>
</radialGradient>
<radialGradient id="paint11_radial_576_1901" cx="0" cy="0" r="1" gradientUnits="userSpaceOnUse" gradientTransform="translate(119.768 131.269) rotate(156.037) scale(3.5199 5.13469)">
<stop stop-color="white"/>
<stop offset="1" stop-color="white" stop-opacity="0"/>
</radialGradient>
</defs>
</svg>
