<svg width="162" height="161" viewBox="0 0 162 161" fill="none" xmlns="http://www.w3.org/2000/svg">
<path d="M126.669 42.9245C124.959 18.9826 105.122 0 80.6665 0C56.2115 0 36.2028 18.9826 34.6637 42.9245C16.5362 43.7796 2 58.8289 2 77.2984C2 96.281 17.3913 111.672 36.3739 111.672H125.13C144.113 111.672 159.504 96.281 159.504 77.2984C159.333 58.8289 144.797 43.7796 126.669 42.9245Z" fill="url(#paint0_radial_576_1793)"/>
<path d="M80.6666 47.2001C67.6695 36.7683 62.7101 20.693 69.3796 11.4582C76.0492 2.22343 92.1245 3.24952 104.951 13.6814C117.948 24.1132 122.907 40.1886 116.238 49.4233C109.568 58.8291 93.4926 57.803 80.6666 47.2001Z" fill="url(#paint1_radial_576_1793)"/>
<path opacity="0.4" d="M126.84 78.324C116.58 70.1153 112.646 57.4603 117.948 50.2777C123.249 43.0951 135.733 43.7792 145.994 52.1588C156.255 60.3675 160.188 73.0226 154.887 80.2052C149.585 87.3878 137.101 86.5327 126.84 78.324Z" fill="url(#paint2_radial_576_1793)"/>
<path opacity="0.2" d="M26.455 79.5223C18.9304 67.7224 10.2086 62.0789 6.95937 66.8673C3.7101 71.6557 7.13038 84.9948 14.655 96.6237C22.1796 108.424 30.9014 114.067 34.1506 109.279C37.3999 104.49 33.9796 91.1513 26.455 79.5223Z" fill="url(#paint3_radial_576_1793)"/>
<path d="M42.1882 132.88C40.307 136.3 36.0317 137.326 32.6114 135.445C29.1911 133.564 28.165 129.288 30.0462 125.868C31.9273 122.448 44.0694 115.778 44.0694 115.778C44.0694 115.778 44.0694 129.459 42.1882 132.88Z" fill="url(#paint4_radial_576_1793)"/>
<path d="M30.2173 131.683C29.1912 128.776 29.7043 125.869 31.7564 125.013C33.6376 124.158 36.0318 125.869 37.2289 128.605C38.255 131.512 37.5709 134.419 35.6898 135.274C33.6376 136.129 31.2434 134.59 30.2173 131.683Z" fill="url(#paint5_radial_576_1793)"/>
<path d="M71.6028 132.88C69.7216 136.3 65.4463 137.326 62.026 135.445C58.6057 133.564 57.5796 129.288 59.4608 125.868C61.342 122.448 73.484 115.778 73.484 115.778C73.484 115.778 73.4839 129.459 71.6028 132.88Z" fill="url(#paint6_radial_576_1793)"/>
<path d="M59.6319 131.683C58.6058 128.776 59.1189 125.869 61.1711 125.013C63.0522 124.158 65.4464 125.869 66.6435 128.605C67.6696 131.512 66.9855 134.419 65.1044 135.274C63.0522 136.129 60.658 134.59 59.6319 131.683Z" fill="url(#paint7_radial_576_1793)"/>
<path d="M101.017 132.88C99.1359 136.3 94.8606 137.326 91.4403 135.445C88.02 133.564 86.994 129.288 88.8751 125.868C90.7563 122.448 102.898 115.778 102.898 115.778C102.898 115.778 102.898 129.459 101.017 132.88Z" fill="url(#paint8_radial_576_1793)"/>
<path d="M89.0462 131.683C88.0202 128.776 88.5332 125.869 90.5854 125.013C92.4665 124.158 94.8607 125.869 96.0578 128.605C97.0839 131.512 96.3999 134.419 94.5187 135.274C92.4665 136.129 90.0723 134.59 89.0462 131.683Z" fill="url(#paint9_radial_576_1793)"/>
<path d="M130.432 132.88C128.55 136.3 124.275 137.326 120.855 135.445C117.434 133.564 116.408 129.288 118.29 125.868C120.171 122.448 132.313 115.778 132.313 115.778C132.313 115.778 132.313 129.459 130.432 132.88Z" fill="url(#paint10_radial_576_1793)"/>
<path d="M118.461 131.683C117.434 128.776 117.948 125.869 120 125.013C121.881 124.158 124.275 125.869 125.472 128.605C126.498 131.512 125.814 134.419 123.933 135.274C121.881 136.129 119.487 134.59 118.461 131.683Z" fill="url(#paint11_radial_576_1793)"/>
<path d="M56.8956 157.504C55.0144 160.924 50.7391 161.95 47.3188 160.069C43.8985 158.188 42.8724 153.741 44.7536 150.492C46.6347 147.072 58.7767 140.402 58.7767 140.402C58.7767 140.402 58.7768 154.254 56.8956 157.504Z" fill="url(#paint12_radial_576_1793)"/>
<path d="M44.9245 156.475C43.8984 153.568 44.4114 150.661 46.4636 149.805C48.3448 148.95 50.7389 150.661 51.936 153.397C52.9621 156.304 52.2781 159.211 50.3969 160.066C48.3448 160.921 45.9506 159.211 44.9245 156.475Z" fill="url(#paint13_radial_576_1793)"/>
<path d="M86.31 157.504C84.4288 160.924 80.1535 161.95 76.7332 160.069C73.3129 158.188 72.2868 153.741 74.168 150.492C76.0491 147.072 88.1911 140.402 88.1911 140.402C88.1911 140.402 88.1911 154.254 86.31 157.504Z" fill="url(#paint14_radial_576_1793)"/>
<path d="M74.3388 156.475C73.3127 153.568 73.8257 150.661 75.8779 149.805C77.7591 148.95 80.1533 150.661 81.3504 153.397C82.3764 156.304 81.6924 159.211 79.8112 160.066C77.7591 160.921 75.3649 159.211 74.3388 156.475Z" fill="url(#paint15_radial_576_1793)"/>
<path d="M115.724 157.504C113.843 160.924 109.568 161.95 106.148 160.069C102.727 158.188 101.701 153.741 103.582 150.492C105.463 147.072 117.606 140.402 117.606 140.402C117.606 140.402 117.605 154.254 115.724 157.504Z" fill="url(#paint16_radial_576_1793)"/>
<path d="M103.753 156.475C102.727 153.568 103.24 150.661 105.293 149.805C107.174 148.95 109.568 150.661 110.765 153.397C111.791 156.304 111.107 159.211 109.226 160.066C107.174 160.921 104.779 159.211 103.753 156.475Z" fill="url(#paint17_radial_576_1793)"/>
<defs>
<radialGradient id="paint0_radial_576_1793" cx="0" cy="0" r="1" gradientUnits="userSpaceOnUse" gradientTransform="translate(100.461 23.5049) rotate(180) scale(120.147 87.7677)">
<stop stop-color="white"/>
<stop offset="0.198" stop-color="#D5F3FF"/>
<stop offset="1" stop-color="#85BCF1"/>
</radialGradient>
<radialGradient id="paint1_radial_576_1793" cx="0" cy="0" r="1" gradientUnits="userSpaceOnUse" gradientTransform="translate(92.766 30.509) rotate(126.034) scale(20.6781 30.1654)">
<stop stop-color="white"/>
<stop offset="1" stop-color="white" stop-opacity="0"/>
</radialGradient>
<radialGradient id="paint2_radial_576_1793" cx="0" cy="0" r="1" gradientUnits="userSpaceOnUse" gradientTransform="translate(136.474 65.1538) rotate(126.034) scale(16.2514 23.7077)">
<stop stop-color="white"/>
<stop offset="1" stop-color="white" stop-opacity="0"/>
</radialGradient>
<radialGradient id="paint3_radial_576_1793" cx="0" cy="0" r="1" gradientUnits="userSpaceOnUse" gradientTransform="translate(20.5469 88.0538) rotate(-25.7092) scale(8.32986 24.2489)">
<stop stop-color="white"/>
<stop offset="1" stop-color="white" stop-opacity="0"/>
</radialGradient>
<radialGradient id="paint4_radial_576_1793" cx="0" cy="0" r="1" gradientUnits="userSpaceOnUse" gradientTransform="translate(32.757 131.285) rotate(30.0007) scale(16.9145 16.9145)">
<stop stop-color="#D0F2FF"/>
<stop offset="0.198" stop-color="#D5F3FF"/>
<stop offset="1" stop-color="#85BCF1"/>
</radialGradient>
<radialGradient id="paint5_radial_576_1793" cx="0" cy="0" r="1" gradientUnits="userSpaceOnUse" gradientTransform="translate(33.6506 130.183) rotate(156.037) scale(3.77947 5.51333)">
<stop stop-color="white"/>
<stop offset="1" stop-color="white" stop-opacity="0"/>
</radialGradient>
<radialGradient id="paint6_radial_576_1793" cx="0" cy="0" r="1" gradientUnits="userSpaceOnUse" gradientTransform="translate(62.159 131.286) rotate(30.0007) scale(16.9145 16.9145)">
<stop stop-color="#D0F2FF"/>
<stop offset="0.198" stop-color="#D5F3FF"/>
<stop offset="1" stop-color="#85BCF1"/>
</radialGradient>
<radialGradient id="paint7_radial_576_1793" cx="0" cy="0" r="1" gradientUnits="userSpaceOnUse" gradientTransform="translate(63.0528 130.183) rotate(156.037) scale(3.77946 5.51333)">
<stop stop-color="white"/>
<stop offset="1" stop-color="white" stop-opacity="0"/>
</radialGradient>
<radialGradient id="paint8_radial_576_1793" cx="0" cy="0" r="1" gradientUnits="userSpaceOnUse" gradientTransform="translate(91.5617 131.285) rotate(30.0007) scale(16.9151 16.9152)">
<stop stop-color="#D0F2FF"/>
<stop offset="0.198" stop-color="#D5F3FF"/>
<stop offset="1" stop-color="#85BCF1"/>
</radialGradient>
<radialGradient id="paint9_radial_576_1793" cx="0" cy="0" r="1" gradientUnits="userSpaceOnUse" gradientTransform="translate(92.4549 130.184) rotate(156.037) scale(3.77947 5.51333)">
<stop stop-color="white"/>
<stop offset="1" stop-color="white" stop-opacity="0"/>
</radialGradient>
<radialGradient id="paint10_radial_576_1793" cx="0" cy="0" r="1" gradientUnits="userSpaceOnUse" gradientTransform="translate(120.964 131.286) rotate(30.0007) scale(16.9145 16.9145)">
<stop stop-color="#D0F2FF"/>
<stop offset="0.198" stop-color="#D5F3FF"/>
<stop offset="1" stop-color="#85BCF1"/>
</radialGradient>
<radialGradient id="paint11_radial_576_1793" cx="0" cy="0" r="1" gradientUnits="userSpaceOnUse" gradientTransform="translate(121.857 130.183) rotate(156.037) scale(3.77946 5.51333)">
<stop stop-color="white"/>
<stop offset="1" stop-color="white" stop-opacity="0"/>
</radialGradient>
<radialGradient id="paint12_radial_576_1793" cx="0" cy="0" r="1" gradientUnits="userSpaceOnUse" gradientTransform="translate(47.4584 155.987) rotate(30.0007) scale(16.9145 16.9145)">
<stop stop-color="#D0F2FF"/>
<stop offset="0.198" stop-color="#D5F3FF"/>
<stop offset="1" stop-color="#85BCF1"/>
</radialGradient>
<radialGradient id="paint13_radial_576_1793" cx="0" cy="0" r="1" gradientUnits="userSpaceOnUse" gradientTransform="translate(48.3513 154.882) rotate(156.037) scale(3.77946 5.51333)">
<stop stop-color="white"/>
<stop offset="1" stop-color="white" stop-opacity="0"/>
</radialGradient>
<radialGradient id="paint14_radial_576_1793" cx="0" cy="0" r="1" gradientUnits="userSpaceOnUse" gradientTransform="translate(76.8607 155.987) rotate(30.0007) scale(16.9146 16.9146)">
<stop stop-color="#D0F2FF"/>
<stop offset="0.198" stop-color="#D5F3FF"/>
<stop offset="1" stop-color="#85BCF1"/>
</radialGradient>
<radialGradient id="paint15_radial_576_1793" cx="0" cy="0" r="1" gradientUnits="userSpaceOnUse" gradientTransform="translate(77.754 154.882) rotate(156.037) scale(3.7797 5.51368)">
<stop stop-color="white"/>
<stop offset="1" stop-color="white" stop-opacity="0"/>
</radialGradient>
<radialGradient id="paint16_radial_576_1793" cx="0" cy="0" r="1" gradientUnits="userSpaceOnUse" gradientTransform="translate(106.263 155.987) rotate(30.0007) scale(16.9145 16.9145)">
<stop stop-color="#D0F2FF"/>
<stop offset="0.198" stop-color="#D5F3FF"/>
<stop offset="1" stop-color="#85BCF1"/>
</radialGradient>
<radialGradient id="paint17_radial_576_1793" cx="0" cy="0" r="1" gradientUnits="userSpaceOnUse" gradientTransform="translate(107.156 154.882) rotate(156.037) scale(3.77971 5.51369)">
<stop stop-color="white"/>
<stop offset="1" stop-color="white" stop-opacity="0"/>
</radialGradient>
</defs>
</svg>
