<svg width="162" height="161" viewBox="0 0 162 161" fill="none" xmlns="http://www.w3.org/2000/svg">
<g clip-path="url(#clip0_671_1703)">
<path d="M71.6501 120.947H70.1061H64.1016L76.4537 96.9295C76.9684 95.9002 77.483 94.6993 77.6546 93.4984C79.1986 86.1214 74.5666 78.7445 67.0181 77.2005C59.6412 75.6565 52.2642 80.2885 50.7202 87.837L42.4855 126.609L42.3139 127.81C42.1424 128.324 42.1424 129.011 42.1424 129.525C42.1424 134.157 45.9166 137.931 50.5487 137.931H59.6412L54.666 158.518C54.4945 159.204 54.8376 160.062 55.3522 160.577C56.21 161.263 57.4109 161.092 58.0972 160.234L77.6546 133.128C78.5124 131.927 79.027 130.383 79.027 128.667C79.1986 124.379 75.7675 120.947 71.6501 120.947Z" fill="url(#paint0_linear_671_1703)"/>
<path d="M113.853 120.947H112.309H106.305L118.657 96.9295C119.171 95.9002 119.686 94.6993 119.858 93.4984C121.402 86.1214 116.77 78.7445 109.221 77.2005C101.844 75.6565 94.4672 80.2885 92.9232 87.837L84.6884 126.609L84.3453 127.81C84.1738 128.324 84.1738 129.011 84.1738 129.525C84.1738 134.157 87.948 137.931 92.58 137.931H101.673L96.6974 158.518C96.5258 159.204 96.8689 160.062 97.3836 160.577C98.2414 161.263 99.4423 161.092 100.129 160.234L119.686 133.128C120.544 131.927 121.058 130.383 121.058 128.667C121.402 124.379 117.97 120.947 113.853 120.947Z" fill="url(#paint1_linear_671_1703)"/>
<path d="M127.577 43.0607C125.862 19.0428 105.79 0 81.4286 0C56.896 0 36.8239 19.0428 35.2799 43.0607C17.0949 43.9185 2.51257 59.0154 2.51257 77.5435C2.51257 96.5863 17.9527 112.026 36.9954 112.026H126.033C145.076 112.026 160.516 96.5863 160.516 77.5435C160.516 59.0154 145.934 44.09 127.577 43.0607Z" fill="url(#paint2_radial_671_1703)"/>
<path opacity="0.6" d="M84.6882 47.3482C71.65 36.8833 66.6748 20.7569 73.3655 11.4929C80.0562 2.2288 96.1825 3.25817 109.049 13.7231C122.088 24.1881 127.063 40.3144 120.372 49.5784C113.681 59.014 97.7265 57.9847 84.6882 47.3482Z" fill="url(#paint3_radial_671_1703)"/>
<path opacity="0.4" d="M127.92 78.5731C117.627 70.3384 113.681 57.6432 118.999 50.4379C124.317 43.2325 136.841 43.9187 147.134 52.325C157.428 60.5597 161.373 73.2549 156.055 80.4603C150.737 87.6656 138.042 86.8078 127.92 78.5731Z" fill="url(#paint4_radial_671_1703)"/>
<path opacity="0.2" d="M27.0451 79.7739C19.4966 67.9365 10.7472 62.2751 7.48767 67.0787C4.2281 71.8823 7.65923 85.2637 15.2077 96.9296C22.7562 108.767 31.5056 114.428 34.7652 109.625C38.0247 104.821 34.5936 91.4397 27.0451 79.7739Z" fill="url(#paint5_radial_671_1703)"/>
</g>
<defs>
<linearGradient id="paint0_linear_671_1703" x1="48.8542" y1="159.447" x2="68.6249" y2="97.1903" gradientUnits="userSpaceOnUse">
<stop offset="0.1559" stop-color="#FFE036"/>
<stop offset="1" stop-color="#FA761C"/>
</linearGradient>
<linearGradient id="paint1_linear_671_1703" x1="91.0908" y1="159.447" x2="110.862" y2="97.1899" gradientUnits="userSpaceOnUse">
<stop offset="0.1559" stop-color="#FFE036"/>
<stop offset="1" stop-color="#FA761C"/>
</linearGradient>
<radialGradient id="paint2_radial_671_1703" cx="0" cy="0" r="1" gradientUnits="userSpaceOnUse" gradientTransform="translate(101.364 23.594) rotate(180) scale(120.528 88.046)">
<stop stop-color="#B6CCD2"/>
<stop offset="0.198" stop-color="#97B6BE"/>
<stop offset="1" stop-color="#5D87B4"/>
</radialGradient>
<radialGradient id="paint3_radial_671_1703" cx="0" cy="0" r="1" gradientUnits="userSpaceOnUse" gradientTransform="translate(96.8882 30.6216) rotate(126.034) scale(20.7439 30.2614)">
<stop stop-color="white"/>
<stop offset="1" stop-color="white" stop-opacity="0"/>
</radialGradient>
<radialGradient id="paint4_radial_671_1703" cx="0" cy="0" r="1" gradientUnits="userSpaceOnUse" gradientTransform="translate(137.491 65.3802) rotate(126.034) scale(16.3027 23.7826)">
<stop stop-color="white"/>
<stop offset="1" stop-color="white" stop-opacity="0"/>
</radialGradient>
<radialGradient id="paint5_radial_671_1703" cx="0" cy="0" r="1" gradientUnits="userSpaceOnUse" gradientTransform="translate(21.2075 88.3471) rotate(-25.7092) scale(8.35645 24.3263)">
<stop stop-color="white"/>
<stop offset="1" stop-color="white" stop-opacity="0"/>
</radialGradient>
<clipPath id="clip0_671_1703">
<rect width="162" height="161" fill="white"/>
</clipPath>
</defs>
</svg>
