<svg width="162" height="161" viewBox="0 0 162 161" fill="none" xmlns="http://www.w3.org/2000/svg">
<path d="M136.166 53.7724C134.821 34.9352 119.078 20 99.9718 20C80.731 20 64.9885 34.9352 63.7775 53.7724C49.515 54.4451 38.0782 66.2857 38.0782 80.8172C38.0782 95.7524 50.1878 107.862 65.123 107.862H134.955C149.89 107.862 162 95.7524 162 80.8172C162 66.2857 150.563 54.4451 136.166 53.7724Z" fill="url(#paint0_radial_576_1685)"/>
<path opacity="0.6" d="M102.528 57.1366C92.3024 48.9289 88.4004 36.2811 93.6479 29.0153C98.8954 21.7496 111.543 22.5569 121.635 30.7645C131.86 38.9721 135.762 51.62 130.515 58.8857C125.267 66.1515 112.754 65.3442 102.528 57.1366Z" fill="url(#paint1_radial_576_1685)"/>
<path opacity="0.4" d="M136.435 81.4902C128.362 75.0317 125.267 65.0749 129.438 59.4237C133.61 53.7726 143.432 54.3108 151.505 60.9038C159.578 67.3623 162.673 77.319 158.502 82.9702C154.33 88.6214 144.374 88.0832 136.435 81.4902Z" fill="url(#paint2_radial_576_1685)"/>
<path opacity="0.2" d="M57.3189 82.4314C51.3986 73.1474 44.5365 68.7072 41.9801 72.4746C39.4236 76.2421 42.1146 86.7371 48.0349 95.8866C53.9551 105.171 60.8172 109.611 63.3737 105.843C65.9302 102.21 63.2392 91.7155 57.3189 82.4314Z" fill="url(#paint3_radial_576_1685)"/>
<path d="M98.088 72.3408C96.7424 53.5036 80.9999 38.5684 61.8936 38.5684C42.6528 38.5684 26.9103 53.5036 25.6993 72.3408C11.4369 73.0135 0 84.854 0 99.3856C0 114.321 12.1096 126.43 27.0448 126.43H96.877C111.812 126.43 123.922 114.321 123.922 99.3856C123.787 84.854 112.35 73.0135 98.088 72.3408Z" fill="url(#paint4_radial_576_1685)"/>
<path d="M61.7591 75.704C51.5332 67.4963 47.6312 54.8485 52.8787 47.5827C58.1262 40.317 70.7741 41.1243 80.8654 49.3319C91.0913 57.5395 94.9933 70.1874 89.7458 77.4531C84.4983 84.8535 71.985 84.0461 61.7591 75.704Z" fill="url(#paint5_radial_576_1685)"/>
<path opacity="0.4" d="M98.2226 100.193C90.1495 93.7348 87.0548 83.778 91.2259 78.1269C95.397 72.4757 105.219 73.0139 113.292 79.6069C121.365 86.0654 124.46 96.0222 120.289 101.673C116.118 107.325 106.296 106.652 98.2226 100.193Z" fill="url(#paint6_radial_576_1685)"/>
<path opacity="0.2" d="M19.2409 101.135C13.3206 91.8505 6.45847 87.4103 3.902 91.1777C1.34552 94.9452 4.03655 105.44 9.95681 114.59C15.8771 123.874 22.7392 128.314 25.2957 124.546C27.8521 120.779 25.1611 110.284 19.2409 101.135Z" fill="url(#paint7_radial_576_1685)"/>
<defs>
<radialGradient id="paint0_radial_576_1685" cx="0" cy="0" r="1" gradientUnits="userSpaceOnUse" gradientTransform="translate(115.602 38.4362) rotate(180) scale(94.5303 69.0544)">
<stop stop-color="#B6CCD2"/>
<stop offset="0.198" stop-color="#97B6BE"/>
<stop offset="1" stop-color="#5D87B4"/>
</radialGradient>
<radialGradient id="paint1_radial_576_1685" cx="0" cy="0" r="1" gradientUnits="userSpaceOnUse" gradientTransform="translate(112.09 43.9473) rotate(126.034) scale(16.27 23.7348)">
<stop stop-color="white"/>
<stop offset="1" stop-color="white" stop-opacity="0"/>
</radialGradient>
<radialGradient id="paint2_radial_576_1685" cx="0" cy="0" r="1" gradientUnits="userSpaceOnUse" gradientTransform="translate(143.935 71.2046) rotate(126.034) scale(12.7864 18.6529)">
<stop stop-color="white"/>
<stop offset="1" stop-color="white" stop-opacity="0"/>
</radialGradient>
<radialGradient id="paint3_radial_576_1685" cx="0" cy="0" r="1" gradientUnits="userSpaceOnUse" gradientTransform="translate(52.7236 89.2236) rotate(-25.7092) scale(6.55381 19.0787)">
<stop stop-color="white"/>
<stop offset="1" stop-color="white" stop-opacity="0"/>
</radialGradient>
<radialGradient id="paint4_radial_576_1685" cx="0" cy="0" r="1" gradientUnits="userSpaceOnUse" gradientTransform="translate(77.4394 57.0611) rotate(180) scale(94.5323 69.0558)">
<stop stop-color="white"/>
<stop offset="0.198" stop-color="#D5F3FF"/>
<stop offset="1" stop-color="#85BCF1"/>
</radialGradient>
<radialGradient id="paint5_radial_576_1685" cx="0" cy="0" r="1" gradientUnits="userSpaceOnUse" gradientTransform="translate(71.3855 62.5715) rotate(126.034) scale(16.2702 23.7351)">
<stop stop-color="white"/>
<stop offset="1" stop-color="white" stop-opacity="0"/>
</radialGradient>
<radialGradient id="paint6_radial_576_1685" cx="0" cy="0" r="1" gradientUnits="userSpaceOnUse" gradientTransform="translate(105.773 89.8305) rotate(126.034) scale(12.7862 18.6526)">
<stop stop-color="white"/>
<stop offset="1" stop-color="white" stop-opacity="0"/>
</radialGradient>
<radialGradient id="paint7_radial_576_1685" cx="0" cy="0" r="1" gradientUnits="userSpaceOnUse" gradientTransform="translate(14.5626 107.85) rotate(-25.7092) scale(6.55408 19.0795)">
<stop stop-color="white"/>
<stop offset="1" stop-color="white" stop-opacity="0"/>
</radialGradient>
</defs>
</svg>
